<mxfile host="app.diagrams.net" modified="2023-09-18T09:19:48.138Z" agent="Mozilla/5.0 (Windows NT 10.0; Win64; x64; rv:109.0) Gecko/20100101 Firefox/117.0" etag="g6CNzz2JNN6Obj0I6trk" version="21.3.8" type="device">
  <diagram name="Side-1" id="WyzCTMxEzf1IP8GLb_Y9">
    <mxGraphModel dx="1877" dy="600" grid="1" gridSize="10" guides="1" tooltips="1" connect="1" arrows="1" fold="1" page="1" pageScale="1" pageWidth="827" pageHeight="1169" math="0" shadow="0">
      <root>
        <mxCell id="0" />
        <mxCell id="1" parent="0" />
        <mxCell id="7bE0xXxaMycv3aF02YR--14" style="edgeStyle=orthogonalEdgeStyle;rounded=0;orthogonalLoop=1;jettySize=auto;html=1;exitX=0.5;exitY=1;exitDx=0;exitDy=0;entryX=0.5;entryY=0;entryDx=0;entryDy=0;" edge="1" parent="1" source="7bE0xXxaMycv3aF02YR--2" target="7bE0xXxaMycv3aF02YR--4">
          <mxGeometry relative="1" as="geometry" />
        </mxCell>
        <mxCell id="7bE0xXxaMycv3aF02YR--15" style="edgeStyle=orthogonalEdgeStyle;rounded=0;orthogonalLoop=1;jettySize=auto;html=1;exitX=0.5;exitY=1;exitDx=0;exitDy=0;entryX=0.5;entryY=0;entryDx=0;entryDy=0;" edge="1" parent="1" source="7bE0xXxaMycv3aF02YR--2" target="7bE0xXxaMycv3aF02YR--5">
          <mxGeometry relative="1" as="geometry" />
        </mxCell>
        <mxCell id="7bE0xXxaMycv3aF02YR--2" value="&lt;font style=&quot;font-size: 16px;&quot;&gt;Main&lt;/font&gt;" style="rounded=1;whiteSpace=wrap;html=1;" vertex="1" parent="1">
          <mxGeometry x="330" y="120" width="80" height="40" as="geometry" />
        </mxCell>
        <mxCell id="7bE0xXxaMycv3aF02YR--4" value="&lt;font style=&quot;font-size: 16px;&quot;&gt;EOF&lt;/font&gt;" style="rounded=1;whiteSpace=wrap;html=1;" vertex="1" parent="1">
          <mxGeometry x="380" y="200" width="80" height="40" as="geometry" />
        </mxCell>
        <mxCell id="7bE0xXxaMycv3aF02YR--16" style="edgeStyle=orthogonalEdgeStyle;rounded=0;orthogonalLoop=1;jettySize=auto;html=1;exitX=0.5;exitY=1;exitDx=0;exitDy=0;entryX=0.5;entryY=0;entryDx=0;entryDy=0;" edge="1" parent="1" source="7bE0xXxaMycv3aF02YR--5" target="7bE0xXxaMycv3aF02YR--12">
          <mxGeometry relative="1" as="geometry" />
        </mxCell>
        <mxCell id="7bE0xXxaMycv3aF02YR--17" style="edgeStyle=orthogonalEdgeStyle;rounded=0;orthogonalLoop=1;jettySize=auto;html=1;exitX=0.5;exitY=1;exitDx=0;exitDy=0;entryX=0.5;entryY=0;entryDx=0;entryDy=0;" edge="1" parent="1" source="7bE0xXxaMycv3aF02YR--5" target="7bE0xXxaMycv3aF02YR--11">
          <mxGeometry relative="1" as="geometry" />
        </mxCell>
        <mxCell id="7bE0xXxaMycv3aF02YR--18" style="edgeStyle=orthogonalEdgeStyle;rounded=0;orthogonalLoop=1;jettySize=auto;html=1;exitX=0.5;exitY=1;exitDx=0;exitDy=0;entryX=0.5;entryY=0;entryDx=0;entryDy=0;" edge="1" parent="1" source="7bE0xXxaMycv3aF02YR--5" target="7bE0xXxaMycv3aF02YR--6">
          <mxGeometry relative="1" as="geometry" />
        </mxCell>
        <mxCell id="7bE0xXxaMycv3aF02YR--19" style="edgeStyle=orthogonalEdgeStyle;rounded=0;orthogonalLoop=1;jettySize=auto;html=1;exitX=0.5;exitY=1;exitDx=0;exitDy=0;entryX=0.5;entryY=0;entryDx=0;entryDy=0;" edge="1" parent="1" source="7bE0xXxaMycv3aF02YR--5" target="7bE0xXxaMycv3aF02YR--7">
          <mxGeometry relative="1" as="geometry" />
        </mxCell>
        <mxCell id="7bE0xXxaMycv3aF02YR--20" style="edgeStyle=orthogonalEdgeStyle;rounded=0;orthogonalLoop=1;jettySize=auto;html=1;exitX=0.5;exitY=1;exitDx=0;exitDy=0;entryX=0.5;entryY=0;entryDx=0;entryDy=0;" edge="1" parent="1" source="7bE0xXxaMycv3aF02YR--5" target="7bE0xXxaMycv3aF02YR--9">
          <mxGeometry relative="1" as="geometry" />
        </mxCell>
        <mxCell id="7bE0xXxaMycv3aF02YR--21" style="edgeStyle=orthogonalEdgeStyle;rounded=0;orthogonalLoop=1;jettySize=auto;html=1;exitX=0.5;exitY=1;exitDx=0;exitDy=0;entryX=0.5;entryY=0;entryDx=0;entryDy=0;" edge="1" parent="1" source="7bE0xXxaMycv3aF02YR--5" target="7bE0xXxaMycv3aF02YR--10">
          <mxGeometry relative="1" as="geometry" />
        </mxCell>
        <mxCell id="7bE0xXxaMycv3aF02YR--22" style="edgeStyle=orthogonalEdgeStyle;rounded=0;orthogonalLoop=1;jettySize=auto;html=1;exitX=0.5;exitY=1;exitDx=0;exitDy=0;entryX=0.5;entryY=0;entryDx=0;entryDy=0;" edge="1" parent="1" source="7bE0xXxaMycv3aF02YR--5" target="7bE0xXxaMycv3aF02YR--13">
          <mxGeometry relative="1" as="geometry" />
        </mxCell>
        <mxCell id="7bE0xXxaMycv3aF02YR--5" value="&lt;font style=&quot;font-size: 16px;&quot;&gt;Expr&lt;/font&gt;" style="rounded=1;whiteSpace=wrap;html=1;" vertex="1" parent="1">
          <mxGeometry x="280" y="200" width="80" height="40" as="geometry" />
        </mxCell>
        <mxCell id="7bE0xXxaMycv3aF02YR--6" value="&lt;font style=&quot;font-size: 16px;&quot;&gt;IN&lt;/font&gt;" style="rounded=1;whiteSpace=wrap;html=1;" vertex="1" parent="1">
          <mxGeometry x="380" y="320" width="80" height="40" as="geometry" />
        </mxCell>
        <mxCell id="7bE0xXxaMycv3aF02YR--32" style="edgeStyle=orthogonalEdgeStyle;rounded=0;orthogonalLoop=1;jettySize=auto;html=1;exitX=0.5;exitY=1;exitDx=0;exitDy=0;entryX=0.5;entryY=0;entryDx=0;entryDy=0;" edge="1" parent="1" source="7bE0xXxaMycv3aF02YR--7" target="7bE0xXxaMycv3aF02YR--25">
          <mxGeometry relative="1" as="geometry" />
        </mxCell>
        <mxCell id="7bE0xXxaMycv3aF02YR--33" style="edgeStyle=orthogonalEdgeStyle;rounded=0;orthogonalLoop=1;jettySize=auto;html=1;exitX=0.5;exitY=1;exitDx=0;exitDy=0;entryX=0.5;entryY=0;entryDx=0;entryDy=0;" edge="1" parent="1" source="7bE0xXxaMycv3aF02YR--7" target="7bE0xXxaMycv3aF02YR--26">
          <mxGeometry relative="1" as="geometry" />
        </mxCell>
        <mxCell id="7bE0xXxaMycv3aF02YR--34" style="edgeStyle=orthogonalEdgeStyle;rounded=0;orthogonalLoop=1;jettySize=auto;html=1;exitX=0.5;exitY=1;exitDx=0;exitDy=0;entryX=0.5;entryY=0;entryDx=0;entryDy=0;" edge="1" parent="1" source="7bE0xXxaMycv3aF02YR--7" target="7bE0xXxaMycv3aF02YR--27">
          <mxGeometry relative="1" as="geometry" />
        </mxCell>
        <mxCell id="7bE0xXxaMycv3aF02YR--7" value="&lt;font style=&quot;font-size: 16px;&quot;&gt;Expr&lt;/font&gt;" style="rounded=1;whiteSpace=wrap;html=1;" vertex="1" parent="1">
          <mxGeometry x="280" y="320" width="80" height="40" as="geometry" />
        </mxCell>
        <mxCell id="7bE0xXxaMycv3aF02YR--9" value="&lt;font style=&quot;font-size: 16px;&quot;&gt;EQ&lt;/font&gt;" style="rounded=1;whiteSpace=wrap;html=1;" vertex="1" parent="1">
          <mxGeometry x="180" y="320" width="80" height="40" as="geometry" />
        </mxCell>
        <mxCell id="7bE0xXxaMycv3aF02YR--10" value="&lt;font style=&quot;font-size: 16px;&quot;&gt;NAME&lt;/font&gt;" style="rounded=1;whiteSpace=wrap;html=1;" vertex="1" parent="1">
          <mxGeometry x="80" y="320" width="80" height="40" as="geometry" />
        </mxCell>
        <mxCell id="7bE0xXxaMycv3aF02YR--29" style="edgeStyle=orthogonalEdgeStyle;rounded=0;orthogonalLoop=1;jettySize=auto;html=1;exitX=0.5;exitY=1;exitDx=0;exitDy=0;entryX=0.5;entryY=0;entryDx=0;entryDy=0;" edge="1" parent="1" source="7bE0xXxaMycv3aF02YR--11" target="7bE0xXxaMycv3aF02YR--23">
          <mxGeometry relative="1" as="geometry" />
        </mxCell>
        <mxCell id="7bE0xXxaMycv3aF02YR--30" style="edgeStyle=orthogonalEdgeStyle;rounded=0;orthogonalLoop=1;jettySize=auto;html=1;exitX=0.5;exitY=1;exitDx=0;exitDy=0;entryX=0.5;entryY=0;entryDx=0;entryDy=0;" edge="1" parent="1" source="7bE0xXxaMycv3aF02YR--11" target="7bE0xXxaMycv3aF02YR--24">
          <mxGeometry relative="1" as="geometry" />
        </mxCell>
        <mxCell id="7bE0xXxaMycv3aF02YR--31" style="edgeStyle=orthogonalEdgeStyle;rounded=0;orthogonalLoop=1;jettySize=auto;html=1;exitX=0.5;exitY=1;exitDx=0;exitDy=0;entryX=0.5;entryY=0;entryDx=0;entryDy=0;" edge="1" parent="1" source="7bE0xXxaMycv3aF02YR--11" target="7bE0xXxaMycv3aF02YR--28">
          <mxGeometry relative="1" as="geometry" />
        </mxCell>
        <mxCell id="7bE0xXxaMycv3aF02YR--11" value="&lt;font style=&quot;font-size: 16px;&quot;&gt;Expr&lt;/font&gt;" style="rounded=1;whiteSpace=wrap;html=1;" vertex="1" parent="1">
          <mxGeometry x="480" y="320" width="80" height="40" as="geometry" />
        </mxCell>
        <mxCell id="7bE0xXxaMycv3aF02YR--12" value="&lt;font style=&quot;font-size: 16px;&quot;&gt;END&lt;/font&gt;" style="rounded=1;whiteSpace=wrap;html=1;" vertex="1" parent="1">
          <mxGeometry x="580" y="320" width="80" height="40" as="geometry" />
        </mxCell>
        <mxCell id="7bE0xXxaMycv3aF02YR--13" value="&lt;font style=&quot;font-size: 16px;&quot;&gt;LET&lt;/font&gt;" style="rounded=1;whiteSpace=wrap;html=1;" vertex="1" parent="1">
          <mxGeometry x="-20" y="320" width="80" height="40" as="geometry" />
        </mxCell>
        <mxCell id="7bE0xXxaMycv3aF02YR--42" style="edgeStyle=orthogonalEdgeStyle;rounded=0;orthogonalLoop=1;jettySize=auto;html=1;exitX=0.5;exitY=1;exitDx=0;exitDy=0;entryX=0.5;entryY=0;entryDx=0;entryDy=0;" edge="1" parent="1" source="7bE0xXxaMycv3aF02YR--23" target="7bE0xXxaMycv3aF02YR--38">
          <mxGeometry relative="1" as="geometry" />
        </mxCell>
        <mxCell id="7bE0xXxaMycv3aF02YR--43" style="edgeStyle=orthogonalEdgeStyle;rounded=0;orthogonalLoop=1;jettySize=auto;html=1;exitX=0.5;exitY=1;exitDx=0;exitDy=0;entryX=0.5;entryY=0;entryDx=0;entryDy=0;" edge="1" parent="1" source="7bE0xXxaMycv3aF02YR--23" target="7bE0xXxaMycv3aF02YR--37">
          <mxGeometry relative="1" as="geometry" />
        </mxCell>
        <mxCell id="7bE0xXxaMycv3aF02YR--44" style="edgeStyle=orthogonalEdgeStyle;rounded=0;orthogonalLoop=1;jettySize=auto;html=1;exitX=0.5;exitY=1;exitDx=0;exitDy=0;entryX=0.5;entryY=0;entryDx=0;entryDy=0;" edge="1" parent="1" source="7bE0xXxaMycv3aF02YR--23" target="7bE0xXxaMycv3aF02YR--41">
          <mxGeometry relative="1" as="geometry" />
        </mxCell>
        <mxCell id="7bE0xXxaMycv3aF02YR--23" value="&lt;font style=&quot;font-size: 16px;&quot;&gt;Expr&lt;/font&gt;" style="rounded=1;whiteSpace=wrap;html=1;" vertex="1" parent="1">
          <mxGeometry x="440" y="440" width="80" height="40" as="geometry" />
        </mxCell>
        <mxCell id="7bE0xXxaMycv3aF02YR--24" value="&lt;font style=&quot;font-size: 16px;&quot;&gt;TIMES&lt;/font&gt;" style="rounded=1;whiteSpace=wrap;html=1;" vertex="1" parent="1">
          <mxGeometry x="540" y="440" width="80" height="40" as="geometry" />
        </mxCell>
        <mxCell id="7bE0xXxaMycv3aF02YR--25" value="&lt;font style=&quot;font-size: 16px;&quot;&gt;RPAR&lt;/font&gt;" style="rounded=1;whiteSpace=wrap;html=1;" vertex="1" parent="1">
          <mxGeometry x="340" y="440" width="80" height="40" as="geometry" />
        </mxCell>
        <mxCell id="7bE0xXxaMycv3aF02YR--36" style="edgeStyle=orthogonalEdgeStyle;rounded=0;orthogonalLoop=1;jettySize=auto;html=1;exitX=0.5;exitY=1;exitDx=0;exitDy=0;entryX=0.5;entryY=0;entryDx=0;entryDy=0;" edge="1" parent="1" source="7bE0xXxaMycv3aF02YR--26" target="7bE0xXxaMycv3aF02YR--35">
          <mxGeometry relative="1" as="geometry" />
        </mxCell>
        <mxCell id="7bE0xXxaMycv3aF02YR--26" value="&lt;font style=&quot;font-size: 16px;&quot;&gt;Expr&lt;/font&gt;" style="rounded=1;whiteSpace=wrap;html=1;" vertex="1" parent="1">
          <mxGeometry x="240" y="440" width="80" height="40" as="geometry" />
        </mxCell>
        <mxCell id="7bE0xXxaMycv3aF02YR--27" value="&lt;font style=&quot;font-size: 16px;&quot;&gt;LPAR&lt;/font&gt;" style="rounded=1;whiteSpace=wrap;html=1;" vertex="1" parent="1">
          <mxGeometry x="140" y="440" width="80" height="40" as="geometry" />
        </mxCell>
        <mxCell id="7bE0xXxaMycv3aF02YR--40" style="edgeStyle=orthogonalEdgeStyle;rounded=0;orthogonalLoop=1;jettySize=auto;html=1;exitX=0.5;exitY=1;exitDx=0;exitDy=0;entryX=0.5;entryY=0;entryDx=0;entryDy=0;" edge="1" parent="1" source="7bE0xXxaMycv3aF02YR--28" target="7bE0xXxaMycv3aF02YR--39">
          <mxGeometry relative="1" as="geometry" />
        </mxCell>
        <mxCell id="7bE0xXxaMycv3aF02YR--28" value="&lt;font style=&quot;font-size: 16px;&quot;&gt;Expr&lt;/font&gt;" style="rounded=1;whiteSpace=wrap;html=1;" vertex="1" parent="1">
          <mxGeometry x="640" y="440" width="80" height="40" as="geometry" />
        </mxCell>
        <mxCell id="7bE0xXxaMycv3aF02YR--35" value="&lt;font style=&quot;font-size: 16px;&quot;&gt;CSTINT&lt;/font&gt;" style="rounded=1;whiteSpace=wrap;html=1;" vertex="1" parent="1">
          <mxGeometry x="240" y="520" width="80" height="40" as="geometry" />
        </mxCell>
        <mxCell id="7bE0xXxaMycv3aF02YR--37" value="&lt;font style=&quot;font-size: 16px;&quot;&gt;PLUS&lt;/font&gt;" style="rounded=1;whiteSpace=wrap;html=1;" vertex="1" parent="1">
          <mxGeometry x="440" y="560" width="80" height="40" as="geometry" />
        </mxCell>
        <mxCell id="7bE0xXxaMycv3aF02YR--47" style="edgeStyle=orthogonalEdgeStyle;rounded=0;orthogonalLoop=1;jettySize=auto;html=1;exitX=0.5;exitY=1;exitDx=0;exitDy=0;entryX=0.5;entryY=0;entryDx=0;entryDy=0;" edge="1" parent="1" source="7bE0xXxaMycv3aF02YR--38" target="7bE0xXxaMycv3aF02YR--46">
          <mxGeometry relative="1" as="geometry" />
        </mxCell>
        <mxCell id="7bE0xXxaMycv3aF02YR--38" value="&lt;font style=&quot;font-size: 16px;&quot;&gt;Expr&lt;/font&gt;" style="rounded=1;whiteSpace=wrap;html=1;" vertex="1" parent="1">
          <mxGeometry x="540" y="560" width="80" height="40" as="geometry" />
        </mxCell>
        <mxCell id="7bE0xXxaMycv3aF02YR--39" value="&lt;font style=&quot;font-size: 16px;&quot;&gt;CSTINT&lt;/font&gt;" style="rounded=1;whiteSpace=wrap;html=1;" vertex="1" parent="1">
          <mxGeometry x="640" y="520" width="80" height="40" as="geometry" />
        </mxCell>
        <mxCell id="7bE0xXxaMycv3aF02YR--48" style="edgeStyle=orthogonalEdgeStyle;rounded=0;orthogonalLoop=1;jettySize=auto;html=1;exitX=0.5;exitY=1;exitDx=0;exitDy=0;entryX=0.5;entryY=0;entryDx=0;entryDy=0;" edge="1" parent="1" source="7bE0xXxaMycv3aF02YR--41" target="7bE0xXxaMycv3aF02YR--45">
          <mxGeometry relative="1" as="geometry" />
        </mxCell>
        <mxCell id="7bE0xXxaMycv3aF02YR--41" value="&lt;font style=&quot;font-size: 16px;&quot;&gt;Expr&lt;/font&gt;" style="rounded=1;whiteSpace=wrap;html=1;" vertex="1" parent="1">
          <mxGeometry x="340" y="560" width="80" height="40" as="geometry" />
        </mxCell>
        <mxCell id="7bE0xXxaMycv3aF02YR--45" value="&lt;font style=&quot;font-size: 16px;&quot;&gt;NAME&lt;/font&gt;" style="rounded=1;whiteSpace=wrap;html=1;" vertex="1" parent="1">
          <mxGeometry x="340" y="640" width="80" height="40" as="geometry" />
        </mxCell>
        <mxCell id="7bE0xXxaMycv3aF02YR--46" value="&lt;font style=&quot;font-size: 16px;&quot;&gt;CSTINT&lt;/font&gt;" style="rounded=1;whiteSpace=wrap;html=1;" vertex="1" parent="1">
          <mxGeometry x="540" y="640" width="80" height="40" as="geometry" />
        </mxCell>
      </root>
    </mxGraphModel>
  </diagram>
</mxfile>
